<svg id="visual" viewBox="0 0 2160 250" width="2160" height="250" xmlns="http://www.w3.org/2000/svg" xmlns:xlink="http://www.w3.org/1999/xlink" version="1.1"><path d="M0 16L144 16L144 16L288 16L288 24L432 24L432 16L576 16L576 26L720 26L720 14L864 14L864 24L1008 24L1008 16L1152 16L1152 26L1296 26L1296 19L1440 19L1440 24L1584 24L1584 16L1728 16L1728 24L1872 24L1872 14L2016 14L2016 26L2160 26L2160 24L2160 0L2160 0L2016 0L2016 0L1872 0L1872 0L1728 0L1728 0L1584 0L1584 0L1440 0L1440 0L1296 0L1296 0L1152 0L1152 0L1008 0L1008 0L864 0L864 0L720 0L720 0L576 0L576 0L432 0L432 0L288 0L288 0L144 0L144 0L0 0Z" fill="#ffffff"></path><path d="M0 46L144 46L144 44L288 44L288 51L432 51L432 64L576 64L576 66L720 66L720 59L864 59L864 46L1008 46L1008 56L1152 56L1152 76L1296 76L1296 51L1440 51L1440 49L1584 49L1584 49L1728 49L1728 61L1872 61L1872 41L2016 41L2016 54L2160 54L2160 66L2160 22L2160 24L2016 24L2016 12L1872 12L1872 22L1728 22L1728 14L1584 14L1584 22L1440 22L1440 17L1296 17L1296 24L1152 24L1152 14L1008 14L1008 22L864 22L864 12L720 12L720 24L576 24L576 14L432 14L432 22L288 22L288 14L144 14L144 14L0 14Z" fill="#ffdfd4"></path><path d="M0 84L144 84L144 94L288 94L288 124L432 124L432 141L576 141L576 139L720 139L720 119L864 119L864 104L1008 104L1008 104L1152 104L1152 111L1296 111L1296 121L1440 121L1440 101L1584 101L1584 124L1728 124L1728 131L1872 131L1872 116L2016 116L2016 146L2160 146L2160 111L2160 64L2160 52L2016 52L2016 39L1872 39L1872 59L1728 59L1728 47L1584 47L1584 47L1440 47L1440 49L1296 49L1296 74L1152 74L1152 54L1008 54L1008 44L864 44L864 57L720 57L720 64L576 64L576 62L432 62L432 49L288 49L288 42L144 42L144 44L0 44Z" fill="#ffbeaa"></path><path d="M0 111L144 111L144 121L288 121L288 144L432 144L432 166L576 166L576 156L720 156L720 151L864 151L864 119L1008 119L1008 131L1152 131L1152 139L1296 139L1296 156L1440 156L1440 134L1584 134L1584 141L1728 141L1728 161L1872 161L1872 144L2016 144L2016 166L2160 166L2160 144L2160 109L2160 144L2016 144L2016 114L1872 114L1872 129L1728 129L1728 122L1584 122L1584 99L1440 99L1440 119L1296 119L1296 109L1152 109L1152 102L1008 102L1008 102L864 102L864 117L720 117L720 137L576 137L576 139L432 139L432 122L288 122L288 92L144 92L144 82L0 82Z" fill="#ff9e81"></path><path d="M0 151L144 151L144 139L288 139L288 171L432 171L432 194L576 194L576 189L720 189L720 181L864 181L864 159L1008 159L1008 166L1152 166L1152 166L1296 166L1296 194L1440 194L1440 159L1584 159L1584 181L1728 181L1728 189L1872 189L1872 174L2016 174L2016 184L2160 184L2160 176L2160 142L2160 164L2016 164L2016 142L1872 142L1872 159L1728 159L1728 139L1584 139L1584 132L1440 132L1440 154L1296 154L1296 137L1152 137L1152 129L1008 129L1008 117L864 117L864 149L720 149L720 154L576 154L576 164L432 164L432 142L288 142L288 119L144 119L144 109L0 109Z" fill="#ff7c59"></path><path d="M0 176L144 176L144 169L288 169L288 199L432 199L432 206L576 206L576 204L720 204L720 211L864 211L864 184L1008 184L1008 194L1152 194L1152 181L1296 181L1296 211L1440 211L1440 181L1584 181L1584 196L1728 196L1728 211L1872 211L1872 186L2016 186L2016 206L2160 206L2160 196L2160 174L2160 182L2016 182L2016 172L1872 172L1872 187L1728 187L1728 179L1584 179L1584 157L1440 157L1440 192L1296 192L1296 164L1152 164L1152 164L1008 164L1008 157L864 157L864 179L720 179L720 187L576 187L576 192L432 192L432 169L288 169L288 137L144 137L144 149L0 149Z" fill="#ff5431"></path><path d="M0 251L144 251L144 251L288 251L288 251L432 251L432 251L576 251L576 251L720 251L720 251L864 251L864 251L1008 251L1008 251L1152 251L1152 251L1296 251L1296 251L1440 251L1440 251L1584 251L1584 251L1728 251L1728 251L1872 251L1872 251L2016 251L2016 251L2160 251L2160 251L2160 194L2160 204L2016 204L2016 184L1872 184L1872 209L1728 209L1728 194L1584 194L1584 179L1440 179L1440 209L1296 209L1296 179L1152 179L1152 192L1008 192L1008 182L864 182L864 209L720 209L720 202L576 202L576 204L432 204L432 197L288 197L288 167L144 167L144 174L0 174Z" fill="#ff0000"></path></svg>