<svg id="visual" viewBox="0 0 2160 250" width="2160" height="250" xmlns="http://www.w3.org/2000/svg" xmlns:xlink="http://www.w3.org/1999/xlink" version="1.1"><path d="M0 66L144 66L144 79L288 79L288 61L432 61L432 66L576 66L576 41L720 41L720 86L864 86L864 54L1008 54L1008 84L1152 84L1152 54L1296 54L1296 76L1440 76L1440 81L1584 81L1584 44L1728 44L1728 76L1872 76L1872 61L2016 61L2016 71L2160 71L2160 44L2160 0L2160 0L2016 0L2016 0L1872 0L1872 0L1728 0L1728 0L1584 0L1584 0L1440 0L1440 0L1296 0L1296 0L1152 0L1152 0L1008 0L1008 0L864 0L864 0L720 0L720 0L576 0L576 0L432 0L432 0L288 0L288 0L144 0L144 0L0 0Z" fill="#ff0000"></path><path d="M0 91L144 91L144 126L288 126L288 114L432 114L432 109L576 109L576 91L720 91L720 124L864 124L864 99L1008 99L1008 106L1152 106L1152 74L1296 74L1296 109L1440 109L1440 106L1584 106L1584 81L1728 81L1728 116L1872 116L1872 104L2016 104L2016 111L2160 111L2160 81L2160 42L2160 69L2016 69L2016 59L1872 59L1872 74L1728 74L1728 42L1584 42L1584 79L1440 79L1440 74L1296 74L1296 52L1152 52L1152 82L1008 82L1008 52L864 52L864 84L720 84L720 39L576 39L576 64L432 64L432 59L288 59L288 77L144 77L144 64L0 64Z" fill="#ff5431"></path><path d="M0 176L144 176L144 156L288 156L288 174L432 174L432 154L576 154L576 151L720 151L720 179L864 179L864 139L1008 139L1008 164L1152 164L1152 146L1296 146L1296 164L1440 164L1440 156L1584 156L1584 156L1728 156L1728 171L1872 171L1872 139L2016 139L2016 164L2160 164L2160 166L2160 79L2160 109L2016 109L2016 102L1872 102L1872 114L1728 114L1728 79L1584 79L1584 104L1440 104L1440 107L1296 107L1296 72L1152 72L1152 104L1008 104L1008 97L864 97L864 122L720 122L720 89L576 89L576 107L432 107L432 112L288 112L288 124L144 124L144 89L0 89Z" fill="#ff7c59"></path><path d="M0 189L144 189L144 174L288 174L288 199L432 199L432 166L576 166L576 174L720 174L720 191L864 191L864 161L1008 161L1008 179L1152 179L1152 169L1296 169L1296 181L1440 181L1440 169L1584 169L1584 176L1728 176L1728 189L1872 189L1872 159L2016 159L2016 186L2160 186L2160 179L2160 164L2160 162L2016 162L2016 137L1872 137L1872 169L1728 169L1728 154L1584 154L1584 154L1440 154L1440 162L1296 162L1296 144L1152 144L1152 162L1008 162L1008 137L864 137L864 177L720 177L720 149L576 149L576 152L432 152L432 172L288 172L288 154L144 154L144 174L0 174Z" fill="#ff9e81"></path><path d="M0 201L144 201L144 201L288 201L288 214L432 214L432 194L576 194L576 191L720 191L720 219L864 219L864 184L1008 184L1008 194L1152 194L1152 184L1296 184L1296 209L1440 209L1440 191L1584 191L1584 201L1728 201L1728 216L1872 216L1872 184L2016 184L2016 199L2160 199L2160 194L2160 177L2160 184L2016 184L2016 157L1872 157L1872 187L1728 187L1728 174L1584 174L1584 167L1440 167L1440 179L1296 179L1296 167L1152 167L1152 177L1008 177L1008 159L864 159L864 189L720 189L720 172L576 172L576 164L432 164L432 197L288 197L288 172L144 172L144 187L0 187Z" fill="#ffbeaa"></path><path d="M0 219L144 219L144 219L288 219L288 229L432 229L432 216L576 216L576 224L720 224L720 234L864 234L864 214L1008 214L1008 214L1152 214L1152 216L1296 216L1296 226L1440 226L1440 214L1584 214L1584 221L1728 221L1728 234L1872 234L1872 216L2016 216L2016 216L2160 216L2160 209L2160 192L2160 197L2016 197L2016 182L1872 182L1872 214L1728 214L1728 199L1584 199L1584 189L1440 189L1440 207L1296 207L1296 182L1152 182L1152 192L1008 192L1008 182L864 182L864 217L720 217L720 189L576 189L576 192L432 192L432 212L288 212L288 199L144 199L144 199L0 199Z" fill="#ffdfd4"></path><path d="M0 251L144 251L144 251L288 251L288 251L432 251L432 251L576 251L576 251L720 251L720 251L864 251L864 251L1008 251L1008 251L1152 251L1152 251L1296 251L1296 251L1440 251L1440 251L1584 251L1584 251L1728 251L1728 251L1872 251L1872 251L2016 251L2016 251L2160 251L2160 251L2160 207L2160 214L2016 214L2016 214L1872 214L1872 232L1728 232L1728 219L1584 219L1584 212L1440 212L1440 224L1296 224L1296 214L1152 214L1152 212L1008 212L1008 212L864 212L864 232L720 232L720 222L576 222L576 214L432 214L432 227L288 227L288 217L144 217L144 217L0 217Z" fill="#ffffff"></path></svg>