<?xml version="1.0" encoding="UTF-8" standalone="no"?>
<svg
   aria-hidden="true"
   role="img"
   class="iconify iconify--logos"
   width="31.88"
   height="32"
   preserveAspectRatio="xMidYMid meet"
   viewBox="0 0 256 257"
   version="1.1"
   id="svg6"
   sodipodi:docname="something.svg"
   inkscape:version="1.4 (e7c3feb1, 2024-10-09)"
   xmlns:inkscape="http://www.inkscape.org/namespaces/inkscape"
   xmlns:sodipodi="http://sodipodi.sourceforge.net/DTD/sodipodi-0.dtd"
   xmlns="http://www.w3.org/2000/svg"
   xmlns:svg="http://www.w3.org/2000/svg">
  <sodipodi:namedview
     id="namedview6"
     pagecolor="#ffffff"
     bordercolor="#000000"
     borderopacity="0.25"
     inkscape:showpageshadow="2"
     inkscape:pageopacity="0.0"
     inkscape:pagecheckerboard="0"
     inkscape:deskcolor="#d1d1d1"
     inkscape:zoom="6.0505646"
     inkscape:cx="7.4373225"
     inkscape:cy="26.030629"
     inkscape:window-width="1104"
     inkscape:window-height="888"
     inkscape:window-x="0"
     inkscape:window-y="38"
     inkscape:window-maximized="0"
     inkscape:current-layer="svg6" />
  <defs
     id="defs5">
    <linearGradient
       id="IconifyId1813088fe1fbc01fb466"
       x1="-.828%"
       x2="57.636%"
       y1="7.652%"
       y2="78.411%">
      <stop
         offset="0%"
         stop-color="#41D1FF"
         id="stop1" />
      <stop
         offset="100%"
         stop-color="#BD34FE"
         id="stop2" />
    </linearGradient>
    <linearGradient
       id="IconifyId1813088fe1fbc01fb467"
       x1="43.376%"
       x2="50.316%"
       y1="2.242%"
       y2="89.03%">
      <stop
         offset="0%"
         stop-color="#FFEA83"
         id="stop3" />
      <stop
         offset="8.333%"
         stop-color="#FFDD35"
         id="stop4" />
      <stop
         offset="100%"
         stop-color="#FFA800"
         id="stop5" />
    </linearGradient>
  </defs>
  <path
     style="font-size:451.081px;font-family:Helvetica;-inkscape-font-specification:Helvetica;fill:#e00000;stroke-width:20.7999"
     d="m 204.64765,2.6323326 h 25.27338 V 34.613913 h 23.74587 v 15.72339 h -23.74587 v 74.766317 q 0,5.98986 5.27686,8.02214 2.91616,1.17658 9.72053,1.17658 1.80524,0 3.88821,0 2.08297,-0.10696 4.86027,-0.32089 v 15.18858 q -4.30481,0.96266 -9.02621,1.39051 -4.58253,0.42784 -9.99826,0.42784 -17.49696,0 -23.74586,-6.84556 -6.24892,-6.95251 -6.24892,-17.96958 V 50.337303 h -20.13538 v -15.72339 h 20.13538 z"
     id="text6-8"
     aria-label="t" />
  <path
     style="font-size:365.419px;font-family:Helvetica;-inkscape-font-specification:Helvetica;stroke-width:37.674"
     d="m 39.13667,172.03906 q 1.733488,20.23926 9.750877,31.0335 14.734659,19.56462 51.137933,19.56462 21.66862,0 38.13676,-9.66987 16.46815,-9.89475 16.46815,-30.35887 0,-15.51676 -13.21785,-23.61246 -8.45076,-4.94736 -33.36967,-11.4689 l -30.986123,-8.0957 Q 47.370744,131.78545 33.286144,122.34047 8.1505491,105.92418 8.1505491,76.914597 q 0,-34.181841 23.6187909,-55.32061 23.835477,-21.13876948 63.922417,-21.13876948 52.438043,0 75.623473,31.93303548 14.51796,20.239246 14.0846,43.626825 h -36.83665 q -1.08343,-13.717715 -9.3175,-24.961741 -13.43454,-15.966518 -46.58753,-15.966518 -22.101987,0 -33.586354,8.770341 -11.267681,8.770339 -11.267681,23.162694 0,15.741624 14.951346,25.186616 8.667447,5.622019 25.568966,9.89475 l 25.785653,6.52154 q 42.03711,10.56938 56.3384,20.46412 22.75205,15.51676 22.75205,48.79907 0,32.15792 -23.61879,55.5455 -23.40211,23.38757 -71.506436,23.38757 -51.787991,0 -73.456607,-24.2871 Q 3.1667674,208.01994 1.6499644,172.03906 Z M 96.775188,0.90497912 Z"
     id="text6"
     aria-label="s" />
</svg>
